<svg width="80" height="44" viewBox="0 0 80 44" fill="none" xmlns="http://www.w3.org/2000/svg">
<path d="M36.2871 23.7874C36.2871 23.0255 36.712 22.6445 37.5631 22.6445C38.4142 22.6445 38.839 23.0255 38.839 23.7874C38.839 24.1513 38.7328 24.4331 38.5204 24.6356C38.308 24.8382 37.9879 24.9387 37.5631 24.9387C36.7134 24.9387 36.2871 24.5549 36.2871 23.7874ZM38.7328 34.611H36.3877V26.015H38.7328V34.611Z" fill="#020203"/>
<path d="M43.5375 34.611H41.1909V22.6445H43.5361V34.611H43.5375Z" fill="#020203"/>
<path d="M48.3414 34.611H45.9962V22.6445H48.3414V34.611Z" fill="#020203"/>
<path d="M58.6051 30.3033C58.6051 31.7024 58.2369 32.7957 57.4991 33.5845C56.7612 34.3733 55.7345 34.7684 54.4189 34.7684C53.5947 34.7684 52.8668 34.5871 52.2366 34.226C51.6064 33.8649 51.1221 33.3466 50.7851 32.6697C50.4466 31.9927 50.2781 31.2039 50.2781 30.3019C50.2781 28.8984 50.6449 27.8066 51.377 27.0277C52.1092 26.2488 53.1387 25.8594 54.4656 25.8594C55.2899 25.8594 56.0178 26.0392 56.6479 26.3975C57.2781 26.7558 57.7625 27.2713 58.0995 27.9425C58.4366 28.6152 58.6051 29.4012 58.6051 30.3033ZM52.6685 30.3061C52.6685 31.1558 52.8073 31.7973 53.0863 32.2321C53.3653 32.6668 53.8199 32.8849 54.4487 32.8849C55.0732 32.8849 55.5221 32.6683 55.7954 32.2363C56.0687 31.8044 56.2061 31.16 56.2061 30.3061C56.2061 29.4564 56.0673 28.8191 55.7912 28.3957C55.515 27.9709 55.0619 27.7584 54.4331 27.7584C53.8086 27.7584 53.3582 27.9694 53.0821 28.3915C52.8059 28.8135 52.6685 29.4522 52.6685 30.3061Z" fill="#020203"/>
<path d="M67.6164 34.6117L66.955 31.6052L66.0628 27.8071H66.009L64.4399 34.6117H61.9178L59.472 26.0156H61.8101L62.8028 29.8223C62.9615 30.5048 63.1229 31.4452 63.2872 32.6446H63.3339C63.3537 32.2552 63.4444 31.6378 63.603 30.7923L63.7262 30.1381L64.7883 26.017H67.3714L68.3797 30.1381C68.3995 30.2513 68.4321 30.417 68.476 30.638C68.5199 30.8589 68.5624 31.0925 68.6034 31.3418C68.6445 31.591 68.6813 31.8346 68.7153 32.0725C68.7493 32.3104 68.7677 32.5016 68.7734 32.6461H68.8201C68.8668 32.2764 68.9475 31.7709 69.0665 31.1279C69.184 30.485 69.269 30.0503 69.32 29.8251L70.351 26.0185H72.6494L70.1725 34.6145H67.6164V34.6117Z" fill="#020203"/>
<path d="M79.999 34.6117H73.2156V33.2224L77.1936 27.8141H73.4549V26.0156H79.863V27.5437L75.9927 32.8132H80.0004V34.6117H79.999Z" fill="#020203"/>
<path fill-rule="evenodd" clip-rule="evenodd" d="M2.34738 23.8864C3.35427 30.3894 8.2485 34.8984 10.0612 36.2593C10.1595 36.3452 10.2577 36.431 10.356 36.5168C10.3603 35.0793 10.3687 31.8894 10.356 27.7458C10.3553 27.5286 10.3547 27.3172 10.354 27.1116C10.3359 21.377 10.3318 20.0635 11.3558 18.453C12.9574 15.9365 16.0574 14.2938 19.0016 14.2768C20.8497 14.2669 22.229 14.8985 22.5307 15.0415C24.5345 15.9946 25.5683 17.5325 25.9422 18.1584C27.034 19.9895 27.1105 21.7838 27.0595 22.7454L27.0594 22.7472C27.0211 23.4688 26.8994 25.7577 25.1775 27.5688C23.7457 29.0735 22.107 29.267 21.2641 29.3665C21.1899 29.3752 21.1219 29.3833 21.0607 29.3914C19.9787 29.5373 18.8869 29.4863 18.2964 29.3716C18.2992 27.4074 18.302 25.5819 18.3063 23.6177C18.3315 23.6132 18.3746 23.6079 18.4253 23.6018C18.5168 23.5906 18.6329 23.5765 18.7113 23.5583C19.4873 23.3855 19.7479 23.166 20.0028 22.8629C20.3866 22.4055 20.3654 21.3377 19.6502 20.8038C18.9407 20.2742 17.9975 20.607 17.533 21.0984C17.2555 21.3915 17.1592 21.7314 17.1209 21.9212L17.3998 42.6699C17.826 43.0421 18.2522 43.4142 18.6785 43.7862C23.2654 40.8888 26.422 37.793 28.4117 35.5527C31.6675 31.8863 35.4543 27.5033 35.1753 21.908C35.1498 21.4081 35.0974 20.9989 35.0578 20.7312C35.2376 20.693 36.43 20.4168 37.0574 19.2612C37.8518 17.7969 36.9766 16.3213 36.9398 16.2618L30.8815 10.263C30.8483 9.6096 30.905 8.6715 30.9665 7.65363C31.0703 5.93802 31.1877 3.99579 30.9112 2.80833C30.6105 1.51527 29.3319 1.5514 29.1154 1.55752C29.1107 1.55765 29.1065 1.55777 29.1028 1.55786C29.048 1.5595 28.9884 1.55898 28.925 1.55843C28.3839 1.55374 27.5614 1.5466 26.9998 2.85223C26.8707 3.15277 26.8535 3.71048 26.8352 4.30462C26.8162 4.92273 26.7959 5.58026 26.6472 6.02867C25.6672 5.09748 24.6868 4.1663 23.7064 3.23511C22.7261 2.30405 21.7458 1.37299 20.7659 0.441932C20.3141 0.256415 19.5438 0.00433976 18.5609 9.12912e-05C17.547 -0.00557333 16.7539 0.253583 16.2965 0.441932L16.285 0.453261C10.9952 5.65811 5.7055 10.8629 0.415743 16.065C-0.176211 17.1681 -0.135142 18.4583 0.533284 19.3788C1.13232 20.203 2.02025 20.4352 2.29781 20.4961C2.1916 21.663 2.12929 22.4787 2.34738 23.8864Z" fill="#4F63AB"/>
</svg>
